HIERARCHY
ROOT hip
{
  OFFSET 0 0 0
  CHANNELS 6 Xposition Yposition Zposition Zrotation Yrotation Xrotation
  JOINT abdomen
  {
    OFFSET 0 20.6881 -0.73152
    CHANNELS 3 Zrotation Xrotation Yrotation
    JOINT chest
    {
      OFFSET 0 11.7043 -0.48768
      CHANNELS 3 Zrotation Xrotation Yrotation
      JOINT neck
      {
        OFFSET 0 22.1894 -2.19456
        CHANNELS 3 Zrotation Xrotation Yrotation
        JOINT head
        {
          OFFSET -0.24384 7.07133 1.2192
          CHANNELS 3 Zrotation Xrotation Yrotation
          JOINT leftEye
          {
            OFFSET 4.14528 8.04674 8.04672
            CHANNELS 3 Zrotation Xrotation Yrotation
            End Site
            {
              OFFSET 1 0 0
            }
          }
          JOINT rightEye
          {
            OFFSET -3.6576 8.04674 8.04672
            CHANNELS 3 Zrotation Xrotation Yrotation
            End Site
            {
              OFFSET 1 0 0
            }
          }
        }
      }
      JOINT rCollar
      {
        OFFSET -2.68224 19.2634 -4.8768
        CHANNELS 3 Zrotation Xrotation Yrotation
        JOINT rShldr
        {
          OFFSET -8.77824 -1.95073 1.46304
          CHANNELS 3 Zrotation Xrotation Yrotation
          JOINT rForeArm
          {
            OFFSET -28.1742 -1.7115 0.48768
            CHANNELS 3 Zrotation Xrotation Yrotation
            JOINT rHand
            {
              OFFSET -22.5879 0.773209 7.07136
              CHANNELS 3 Zrotation Xrotation Yrotation
              JOINT rThumb1
              {
                OFFSET -1.2192 -0.487915 3.41376
                CHANNELS 3 Zrotation Xrotation Yrotation
                JOINT rThumb2
                {
                  OFFSET -3.37035 -0.52449 3.41376
                  CHANNELS 3 Zrotation Xrotation Yrotation
                  End Site
                  {
                    OFFSET -1.78271 -1.18214 1.43049
                  }
                }
              }
              JOINT rIndex1
              {
                OFFSET -7.75947 0.938293 5.60832
                CHANNELS 3 Zrotation Xrotation Yrotation
                JOINT rIndex2
                {
                  OFFSET -2.54057 -0.884171 1.56538
                  CHANNELS 3 Zrotation Xrotation Yrotation
                  End Site
                  {
                    OFFSET -1.62519 -0.234802 1.16502
                  }
                }
              }
              JOINT rMid1
              {
                OFFSET -8.24714 1.18213 3.41376
                CHANNELS 3 Zrotation Xrotation Yrotation
                JOINT rMid2
                {
                  OFFSET -3.10165 -0.590103 1.0647
                  CHANNELS 3 Zrotation Xrotation Yrotation
                  End Site
                  {
                    OFFSET -2.48547 -0.328903 0.83742
                  }
                }
              }
              JOINT rRing1
              {
                OFFSET -8.82822 0.546677 1.51678
                CHANNELS 3 Zrotation Xrotation Yrotation
                JOINT rRing2
                {
                  OFFSET -2.60934 -0.819778 -0.0198488
                  CHANNELS 3 Zrotation Xrotation Yrotation
                  End Site
                  {
                    OFFSET -2.33842 -0.294052 0.168128
                  }
                }
              }
              JOINT rPinky1
              {
                OFFSET -8.27202 -0.0477905 -0.4584
                CHANNELS 3 Zrotation Xrotation Yrotation
                JOINT rPinky2
                {
                  OFFSET -1.82734 -0.647385 -0.700984
                  CHANNELS 3 Zrotation Xrotation Yrotation
                  End Site
                  {
                    OFFSET -1.69225 -0.51767 -0.607171
                  }
                }
              }
            }
          }
        }
      }
      JOINT lCollar
      {
        OFFSET 2.68224 19.2634 -4.8768
        CHANNELS 3 Zrotation Xrotation Yrotation
        JOINT lShldr
        {
          OFFSET 8.77824 -1.95073 1.46304
          CHANNELS 3 Zrotation Xrotation Yrotation
          JOINT lForeArm
          {
            OFFSET 28.1742 -1.7115 0.48768
            CHANNELS 3 Zrotation Xrotation Yrotation
            JOINT lHand
            {
              OFFSET 22.5879 0.773209 7.07136
              CHANNELS 3 Zrotation Xrotation Yrotation
              JOINT lThumb1
              {
                OFFSET 1.2192 -0.487915 3.41376
                CHANNELS 3 Zrotation Xrotation Yrotation
                JOINT lThumb2
                {
                  OFFSET 3.37035 -0.52449 3.41376
                  CHANNELS 3 Zrotation Xrotation Yrotation
                  End Site
                  {
                    OFFSET 1.78271 -1.18214 1.43049
                  }
                }
              }
              JOINT lIndex1
              {
                OFFSET 7.75947 0.938293 5.60832
                CHANNELS 3 Zrotation Xrotation Yrotation
                JOINT lIndex2
                {
                  OFFSET 2.54057 -0.884171 1.56538
                  CHANNELS 3 Zrotation Xrotation Yrotation
                  End Site
                  {
                    OFFSET 1.62519 -0.234802 1.16502
                  }
                }
              }
              JOINT lMid1
              {
                OFFSET 8.24714 1.18213 3.41376
                CHANNELS 3 Zrotation Xrotation Yrotation
                JOINT lMid2
                {
                  OFFSET 3.10165 -0.590103 1.0647
                  CHANNELS 3 Zrotation Xrotation Yrotation
                  End Site
                  {
                    OFFSET 2.48547 -0.328903 0.83742
                  }
                }
              }
              JOINT lRing1
              {
                OFFSET 8.82822 0.546677 1.51678
                CHANNELS 3 Zrotation Xrotation Yrotation
                JOINT lRing2
                {
                  OFFSET 2.60934 -0.819778 -0.0198488
                  CHANNELS 3 Zrotation Xrotation Yrotation
                  End Site
                  {
                    OFFSET 2.33842 -0.294052 0.168128
                  }
                }
              }
              JOINT lPinky1
              {
                OFFSET 8.27202 -0.0477905 -0.4584
                CHANNELS 3 Zrotation Xrotation Yrotation
                JOINT lPinky2
                {
                  OFFSET 1.82734 -0.647385 -0.700984
                  CHANNELS 3 Zrotation Xrotation Yrotation
                  End Site
                  {
                    OFFSET 1.69225 -0.51767 -0.607171
                  }
                }
              }
            }
          }
        }
      }
    }
  }
  JOINT rButtock
  {
    OFFSET -8.77824 4.35084 1.2192
    CHANNELS 3 Zrotation Xrotation Yrotation
    JOINT rThigh
    {
      OFFSET 0 -1.70687 -2.19456
      CHANNELS 3 Zrotation Xrotation Yrotation
      JOINT rShin
      {
        OFFSET 0 -36.8199 0.73152
        CHANNELS 3 Zrotation Xrotation Yrotation
        JOINT rFoot
        {
          OFFSET 0.73152 -45.1104 -5.12064
          CHANNELS 3 Zrotation Xrotation Yrotation
          End Site
          {
            OFFSET -1.1221 -3.69964 12.103
          }
        }
      }
    }
  }
  JOINT lButtock
  {
    OFFSET 8.77824 4.35084 1.2192
    CHANNELS 3 Zrotation Xrotation Yrotation
    JOINT lThigh
    {
      OFFSET 0 -1.70687 -2.19456
      CHANNELS 3 Zrotation Xrotation Yrotation
      JOINT lShin
      {
        OFFSET 0 -36.8199 0.73152
        CHANNELS 3 Zrotation Xrotation Yrotation
        JOINT lFoot
        {
          OFFSET -0.73152 -45.1104 -5.12064
          CHANNELS 3 Zrotation Xrotation Yrotation
          End Site
          {
            OFFSET 1.1221 -3.69964 12.103
          }
        }
      }
    }
  }
}
MOTION
Frames:	5
Frame Time:	0.00833333
55.3141 73.6459 19.4777 -158.582 -59.5577 -194.315 17.2206 12.9971 -8.57159 2.27464 -12.8812 -1.79702 1.96082 7.1 6.79059 0.414486 -44.9182 12.8832 -0.0 0.0 0.0 -0.0 0.0 0.0 2.90627e-14 -8.28409e-14 2.2385e-13 64.4017 -10.0838 -37.3593 -12.6915 -5.957 22.9362 -1.8044 35.4056 5.71728 -5.67023e-10 -1.03927e-09 7.02193e-10 -9.63084e-10 -1.83281e-09 1.22815e-09 -5.67013e-10 -1.03927e-09 7.0218e-10 7.73091 5.47488 0.417314 -5.67024e-10 -1.03926e-09 7.0219e-10 2.90554 0.965183 0.102902 -5.67018e-10 -1.03926e-09 7.02186e-10 10.2786 0.731801 0.0259123 -5.67024e-10 -1.03926e-09 7.02185e-10 2.22167 -0.733487 -0.20892 2.88819e-14 -8.28472e-14 2.23561e-13 15.1075 74.3913 -95.422 25.2009 -21.5335 -53.7274 0.0651152 -7.12355 1.00665 3.18169e-10 -1.43933e-09 1.02025e-09 5.41521e-10 -2.53774e-09 1.76696e-09 3.18166e-10 -1.43932e-09 1.02026e-09 -7.73091 5.47488 -0.417314 3.18169e-10 -1.43934e-09 1.02025e-09 -2.90554 0.965183 -0.102902 3.18161e-10 -1.43932e-09 1.02025e-09 -10.2786 0.731801 -0.0259123 3.18182e-10 -1.43933e-09 1.02025e-09 -2.22167 -0.733487 0.20892 -2.03217e-16 0.0 -3.88251e-19 14.0657 -35.4821 16.4739 -0.757964 56.5399 1.55711 -7.48274 -20.5236 -15.5576 2.03217e-16 0.0 3.88251e-19 -0.881447 -36.9027 5.31825 0.979496 59.5652 -1.70932 4.98369 -30.638 8.06238
55.681 72.6112 18.7664 -157.928 -60.5299 -194.498 16.3667 12.6329 -8.81824 2.58163 -12.8655 -1.87168 2.28386 6.92536 7.5074 0.922051 -45.7638 14.4925 -0.0 0.0 0.0 -0.0 0.0 0.0 -8.11224e-14 1.54167e-13 -6.17156e-14 65.7089 -12.633 -37.8802 -12.2004 -5.59849 21.9834 -2.19322 38.2779 6.35632 -9.04069e-11 -4.88177e-10 3.5132e-10 -1.5387e-10 -8.96958e-10 6.10394e-10 -9.0399e-11 -4.88178e-10 3.51306e-10 7.73091 5.47488 0.417314 -9.04059e-11 -4.88175e-10 3.51319e-10 2.90554 0.965183 0.102902 -9.04006e-11 -4.88173e-10 3.51314e-10 10.2786 0.731801 0.0259123 -9.04105e-11 -4.88177e-10 3.51314e-10 2.22167 -0.733487 -0.20892 -8.13626e-14 1.54159e-13 -6.19847e-14 0.985277 76.2388 -81.1577 24.8143 -20.6996 -52.3234 0.0716791 -7.47632 1.05706 1.59127e-11 -1.91531e-09 1.66476e-09 1.10646e-11 -3.36356e-09 2.89057e-09 1.59092e-11 -1.91529e-09 1.66476e-09 -7.73091 5.47488 -0.417314 1.59125e-11 -1.9153e-09 1.66477e-09 -2.90554 0.965183 -0.102902 1.59044e-11 -1.91529e-09 1.66476e-09 -10.2786 0.731801 -0.0259123 1.59235e-11 -1.91531e-09 1.66476e-09 -2.22167 -0.733487 0.20892 -2.03217e-16 0.0 -3.88251e-19 14.7526 -37.6614 16.4856 -0.882397 59.1341 1.77312 -9.02626 -21.3956 -18.0897 2.03217e-16 0.0 3.88251e-19 -1.59684 -40.6492 4.00495 1.28469 64.0675 -2.07387 5.42733 -28.9398 9.02307
56.1849 70.988 17.9255 -156.436 -61.1608 -195.425 15.7988 12.6749 -8.97444 2.8071 -12.8944 -1.90569 2.59986 6.85704 8.12511 1.26494 -46.8297 15.8217 -0.0 0.0 0.0 -0.0 0.0 0.0 -1.76413e-13 3.84055e-13 -2.76559e-13 67.3152 -14.1519 -37.9914 -11.8441 -5.3398 21.3084 -2.57209 40.6634 6.93413 3.55737e-10 -2.25104e-10 3.09535e-10 6.13999e-10 -4.63636e-10 5.24907e-10 3.55743e-10 -2.25102e-10 3.09522e-10 7.73091 5.47488 0.417314 3.55739e-10 -2.25102e-10 3.09535e-10 2.90554 0.965183 0.102902 3.55744e-10 -2.25101e-10 3.09531e-10 10.2786 0.731801 0.0259123 3.55732e-10 -2.25105e-10 3.09532e-10 2.22167 -0.733487 -0.20892 -1.7669e-13 3.84047e-13 -2.76808e-13 -15.7123 76.7901 -64.3509 24.3907 -19.8455 -50.87 0.0657983 -7.29947 1.03152 -2.47447e-11 -2.30538e-09 2.23496e-09 -6.38282e-11 -4.03845e-09 3.88308e-09 -2.47487e-11 -2.30535e-09 2.23496e-09 -7.73091 5.47488 -0.417314 -2.47449e-11 -2.30536e-09 2.23497e-09 -2.90554 0.965183 -0.102902 -2.47532e-11 -2.30536e-09 2.23496e-09 -10.2786 0.731801 -0.0259123 -2.47362e-11 -2.30538e-09 2.23495e-09 -2.22167 -0.733487 0.20892 -2.03217e-16 0.0 -3.88251e-19 15.6029 -39.5542 16.4623 -1.03368 61.6835 2.00387 -10.3501 -22.1679 -20.0534 2.03217e-16 0.0 3.88251e-19 -2.17588 -43.7406 2.75892 1.67733 68.054 -2.51454 5.79133 -27.7111 9.82267
56.6276 69.467 17.1494 -154.917 -61.7269 -196.618 15.6965 13.3386 -9.06938 2.90192 -12.9726 -1.89919 2.93512 6.95807 8.65602 1.3486 -48.3569 16.8405 -0.0 0.0 0.0 -0.0 0.0 0.0 -2.78716e-13 6.91858e-13 -4.02692e-13 69.4931 -14.3023 -37.4814 -11.6684 -5.21301 20.9803 -2.92266 42.6853 7.45294 8.80215e-10 -4.61135e-10 8.42737e-10 1.53762e-09 -9.05236e-10 1.42545e-09 8.80219e-10 -4.61133e-10 8.42728e-10 7.73091 5.47488 0.417314 8.80216e-10 -4.61134e-10 8.42738e-10 2.90554 0.965183 0.102902 8.80221e-10 -4.61133e-10 8.42736e-10 10.2786 0.731801 0.0259123 8.80208e-10 -4.61136e-10 8.42739e-10 2.22167 -0.733487 -0.20892 -2.79e-13 6.91849e-13 -4.02917e-13 -31.8054 75.9388 -48.2459 23.9263 -18.9592 -49.3902 0.0477152 -6.40621 0.903712 4.12303e-10 -2.50568e-09 2.80039e-09 6.91647e-10 -4.38223e-09 4.86415e-09 4.12299e-10 -2.50565e-09 2.80039e-09 -7.73091 5.47488 -0.417314 4.12303e-10 -2.50565e-09 2.80039e-09 -2.90554 0.965183 -0.102902 4.12295e-10 -2.50566e-09 2.80039e-09 -10.2786 0.731801 -0.0259123 4.12309e-10 -2.50568e-09 2.80038e-09 -2.22167 -0.733487 0.20892 -2.03217e-16 0.0 -3.88251e-19 16.7156 -41.1002 16.2918 -1.2203 64.3244 2.25846 -11.3363 -22.9057 -21.2423 2.03217e-16 0.0 3.88251e-19 -2.43676 -45.9921 1.55137 2.15794 71.4994 -3.03255 6.14882 -27.1146 10.4937
56.9189 68.5627 16.5325 -153.784 -62.2321 -197.723 15.8187 14.4079 -9.13727 2.94285 -13.0701 -1.86873 3.28482 7.13778 9.12118 1.26671 -50.2131 17.6525 -0.0 0.0 0.0 -0.0 0.0 0.0 -3.92374e-13 1.07138e-12 -4.88721e-13 71.9938 -13.5282 -36.4075 -11.6186 -5.17879 20.8847 -3.26788 44.5283 7.95249 1.48545e-09 -9.89534e-10 1.73646e-09 2.61372e-09 -1.8618e-09 2.94305e-09 1.48546e-09 -9.89533e-10 1.73646e-09 7.73091 5.47488 0.417314 1.48545e-09 -9.89532e-10 1.73646e-09 2.90554 0.965183 0.102902 1.48546e-09 -9.89532e-10 1.73646e-09 10.2786 0.731801 0.0259123 1.48545e-09 -9.89534e-10 1.73647e-09 2.22167 -0.733487 -0.20892 -3.92646e-13 1.07137e-12 -4.8892e-13 -44.7929 73.9087 -35.3449 23.4334 -18.0663 -47.8952 0.0288425 -5.0622 0.712715 1.14382e-09 -2.54599e-09 3.40558e-09 1.95888e-09 -4.44749e-09 5.91218e-09 1.14382e-09 -2.54597e-09 3.40559e-09 -7.73091 5.47488 -0.417314 1.14382e-09 -2.54598e-09 3.40559e-09 -2.90554 0.965183 -0.102902 1.14381e-09 -2.54598e-09 3.40558e-09 -10.2786 0.731801 -0.0259123 1.14382e-09 -2.546e-09 3.40557e-09 -2.22167 -0.733487 0.20892 -2.03217e-16 0.0 -3.88251e-19 18.0014 -42.4962 16.1617 -1.45559 67.0461 2.5549 -11.9982 -23.3671 -21.9118 2.03217e-16 0.0 3.88251e-19 -2.57818 -47.7638 0.362921 2.75974 74.5682 -3.66488 6.42485 -26.4939 11.0386
